<svg xmlns="http://www.w3.org/2000/svg" viewBox="0 0 64 64">
  <!-- Background -->
  <rect width="64" height="64" rx="14" fill="#FF6B00"/>

  <!-- Head shape -->
  <ellipse cx="32" cy="36" rx="22" ry="22" fill="#FF8C3A"/>

  <!-- Kufi cap -->
  <rect x="14" y="12" width="36" height="10" rx="4" fill="#2D9F4F"/>
  <ellipse cx="32" cy="22" rx="18" ry="4" fill="#2D9F4F"/>
  <line x1="20" y1="12" x2="20" y2="22" stroke="#1B7A38" stroke-width="1.5"/>
  <line x1="26" y1="12" x2="26" y2="22" stroke="#1B7A38" stroke-width="1.5"/>
  <line x1="32" y1="12" x2="32" y2="22" stroke="#1B7A38" stroke-width="1.5"/>
  <line x1="38" y1="12" x2="38" y2="22" stroke="#1B7A38" stroke-width="1.5"/>
  <line x1="44" y1="12" x2="44" y2="22" stroke="#1B7A38" stroke-width="1.5"/>

  <!-- Eyes -->
  <circle cx="24" cy="34" r="7" fill="white"/>
  <circle cx="40" cy="34" r="7" fill="white"/>
  <circle cx="24" cy="35" r="3.5" fill="#1A1A2E"/>
  <circle cx="40" cy="35" r="3.5" fill="#1A1A2E"/>
  <circle cx="25.5" cy="33" r="1.5" fill="white"/>
  <circle cx="41.5" cy="33" r="1.5" fill="white"/>

  <!-- Beak -->
  <path d="M28 42 L32 50 L36 42 Z" fill="#FFB800"/>
  <path d="M29.5 42 L32 48 L34.5 42 Z" fill="#FFD54F"/>

  <!-- Smile -->
  <path d="M26 52 Q32 58 38 52" stroke="#E05A00" stroke-width="2" stroke-linecap="round" fill="none"/>
</svg>
